<mxfile host="app.diagrams.net" modified="2023-09-01T11:36:35.893Z" agent="Mozilla/5.0 (X11; Linux x86_64) AppleWebKit/537.36 (KHTML, like Gecko) Chrome/116.0.0.0 Safari/537.36" etag="Bfm9__W0wt1oMidoOoBH" version="21.7.1" type="github">
  <diagram name="Page-1" id="R_YjUMH3s-YCrglK8Cfj">
    <mxGraphModel dx="1315" dy="2098" grid="1" gridSize="10" guides="1" tooltips="1" connect="1" arrows="1" fold="1" page="1" pageScale="1" pageWidth="850" pageHeight="1100" math="0" shadow="0">
      <root>
        <mxCell id="0" />
        <mxCell id="1" parent="0" />
        <mxCell id="tsZetXbNBAciIYQOSDn_-3" value="Database" style="swimlane;whiteSpace=wrap;html=1;" vertex="1" parent="1">
          <mxGeometry x="30" y="-10" width="870" height="230" as="geometry" />
        </mxCell>
        <mxCell id="tsZetXbNBAciIYQOSDn_-4" value="user_creds" style="swimlane;whiteSpace=wrap;html=1;" vertex="1" parent="tsZetXbNBAciIYQOSDn_-3">
          <mxGeometry x="30" y="60" width="390" height="140" as="geometry" />
        </mxCell>
        <mxCell id="tsZetXbNBAciIYQOSDn_-6" value="serial primary id&lt;br&gt;email char(255)&lt;br&gt;password char(255)&lt;br&gt;is_admin boolean" style="text;html=1;strokeColor=none;fillColor=none;align=center;verticalAlign=middle;whiteSpace=wrap;rounded=0;" vertex="1" parent="tsZetXbNBAciIYQOSDn_-4">
          <mxGeometry x="20" y="60" width="350" height="30" as="geometry" />
        </mxCell>
        <mxCell id="tsZetXbNBAciIYQOSDn_-8" value="user_ranks" style="swimlane;whiteSpace=wrap;html=1;" vertex="1" parent="tsZetXbNBAciIYQOSDn_-3">
          <mxGeometry x="460" y="60" width="340" height="140" as="geometry" />
        </mxCell>
        <mxCell id="tsZetXbNBAciIYQOSDn_-9" value="serial primary key references user_creds(id)&lt;br&gt;rank integer&lt;br&gt;total_score integer&lt;br&gt;num_guesses integer" style="text;html=1;strokeColor=none;fillColor=none;align=center;verticalAlign=middle;whiteSpace=wrap;rounded=0;" vertex="1" parent="tsZetXbNBAciIYQOSDn_-8">
          <mxGeometry x="40" y="60" width="270" height="40" as="geometry" />
        </mxCell>
        <mxCell id="tsZetXbNBAciIYQOSDn_-11" value="Database function" style="swimlane;whiteSpace=wrap;html=1;" vertex="1" parent="1">
          <mxGeometry x="40" y="320" width="560" height="290" as="geometry" />
        </mxCell>
        <mxCell id="tsZetXbNBAciIYQOSDn_-12" value="Text" style="text;html=1;align=center;verticalAlign=middle;resizable=0;points=[];autosize=1;strokeColor=none;fillColor=none;" vertex="1" parent="1">
          <mxGeometry x="175" y="388" width="50" height="30" as="geometry" />
        </mxCell>
        <mxCell id="tsZetXbNBAciIYQOSDn_-13" value="Program flow" style="swimlane;whiteSpace=wrap;html=1;" vertex="1" parent="1">
          <mxGeometry x="40" y="740" width="1190" height="960" as="geometry" />
        </mxCell>
      </root>
    </mxGraphModel>
  </diagram>
</mxfile>
